# xmcd CD database file
#
# Track frame offsets:
#	187
#	34750
#	72325
#	95950
#	136150
#	159925
#	187450
#	221200
#	248800
#	270250
#
# Disc length: 3901 seconds
#
# Revision: 1
# Processed by: cddbd v1.5.1PL0 Copyright (c) Steve Scherf et al.
# Submitted via: CDex 1.51
#
DISCID=960f3b0a
DTITLE=ROB SCHNEIDERMAN - Standards
DYEAR=1900
DGENRE=Jazz
TTITLE0=Love Letters
TTITLE1=So In Love
TTITLE2=Slow Boat To China
TTITLE3=Without A Song
TTITLE4=I Should Care
TTITLE5=Fly Me To The Moon
TTITLE6=Disritmia
TTITLE7=With A Song In My Heart
TTITLE8=When You Wish Upon A Star
TTITLE9=No One Else But You
EXTD=
EXTT0=
EXTT1=
EXTT2=
EXTT3=
EXTT4=
EXTT5=
EXTT6=
EXTT7=
EXTT8=
EXTT9=
PLAYORDER=
